<?xml version="1.0" encoding="utf-8"?>
<!-- Generator: Adobe Illustrator 27.5.0, SVG Export Plug-In . SVG Version: 6.00 Build 0)  -->
<svg version="1.1" xmlns="http://www.w3.org/2000/svg" xmlns:xlink="http://www.w3.org/1999/xlink" x="0px" y="0px"
	 viewBox="0 0 500 500" style="enable-background:new 0 0 500 500;" xml:space="preserve">
<g id="Background_Complete">
	<rect x="416.872" y="398.494" style="fill:#EBEBEB;" width="33.122" height="0.25"/>
	<rect x="322.62" y="401.208" style="fill:#EBEBEB;" width="8.693" height="0.25"/>
	<rect x="396.679" y="389.208" style="fill:#EBEBEB;" width="19.192" height="0.25"/>
	<rect x="52.552" y="390.888" style="fill:#EBEBEB;" width="43.193" height="0.25"/>
	<rect x="104.649" y="390.888" style="fill:#EBEBEB;" width="6.333" height="0.25"/>
	<rect x="131.564" y="395.111" style="fill:#EBEBEB;" width="93.676" height="0.25"/>
	<path style="fill:#EBEBEB;" d="M239.742,336.612H46.643c-3.147,0-5.708-2.56-5.708-5.708V59.472c0-3.147,2.561-5.708,5.708-5.708
		h193.099c3.147,0,5.707,2.561,5.707,5.708v271.432C245.449,334.051,242.888,336.612,239.742,336.612z M46.643,54.014
		c-3.01,0-5.458,2.448-5.458,5.458v271.432c0,3.01,2.448,5.458,5.458,5.458h193.099c3.009,0,5.457-2.448,5.457-5.458V59.472
		c0-3.009-2.448-5.458-5.457-5.458H46.643z"/>
	<path style="fill:#EBEBEB;" d="M453.404,337.8H260.305c-3.147,0-5.707-2.561-5.707-5.708V60.66c0-3.147,2.561-5.708,5.707-5.708
		h193.099c3.148,0,5.708,2.561,5.708,5.708v271.432C459.112,335.239,456.551,337.8,453.404,337.8z M260.305,55.203
		c-3.009,0-5.457,2.448-5.457,5.458v271.432c0,3.01,2.448,5.458,5.457,5.458h193.099c3.01,0,5.458-2.448,5.458-5.458V60.66
		c0-3.009-2.448-5.458-5.458-5.458H260.305z"/>
	<rect x="0.093" y="382.398" style="fill:#EBEBEB;" width="500" height="0.25"/>
	<g>
		<path style="fill:#F5F5F5;" d="M237.798,278.841c0.943,2.421,3.67,3.619,6.091,2.675c2.421-0.943,3.619-3.67,2.675-6.091
			c-0.943-2.421-3.67-3.619-6.091-2.675C238.053,273.693,236.855,276.42,237.798,278.841z"/>
	</g>
	<g>
		<g>
			<circle style="fill:#FAFAFA;" cx="419.77" cy="104.24" r="22.76"/>
			<g>
				<g>
					<g>
						<path style="fill:#E6E6E6;" d="M202.456,77.782c0,0,0.758-0.157,1.889-0.613c1.136-0.444,2.599-1.195,4.121-1.929
							c1.515-0.729,2.962-1.105,4.036-1.209c1.073-0.12,1.802-0.026,1.905-0.282c0.1-0.216-0.53-0.805-1.841-1.046
							c-1.296-0.255-3.16-0.008-4.91,0.84c-1.741,0.847-2.957,2.013-3.822,2.837C202.977,77.219,202.456,77.782,202.456,77.782z"/>
					</g>
					<g>
						<path style="fill:#E6E6E6;" d="M195.821,72.441c0,0,0.537,0.21,1.368,0.533c0.814,0.332,1.841,0.799,2.986,1.301
							c2.284,1.005,4.232,2.054,4.55,1.599c0.148-0.21-0.154-0.722-0.809-1.36c-0.654-0.633-1.681-1.401-3-1.968
							c-1.317-0.58-2.69-0.64-3.62-0.507c-0.471,0.072-0.84,0.164-1.091,0.257C195.954,72.384,195.821,72.441,195.821,72.441z"/>
					</g>
				</g>
				<g>
					<g>
						<path style="fill:#E6E6E6;" d="M214.766,81.765c0,0,0.135-0.082,0.375-0.227c0.233-0.151,0.582-0.35,1.005-0.58
							c0.848-0.465,2.023-0.992,3.346-1.453c2.66-0.952,5.039-0.744,5.112-1.147c0.033-0.18-0.546-0.487-1.574-0.631
							c-1.021-0.148-2.492-0.074-3.999,0.446c-1.511,0.526-2.66,1.462-3.327,2.237c-0.338,0.388-0.576,0.726-0.719,0.974
							C214.845,81.627,214.766,81.765,214.766,81.765z"/>
					</g>
					<g>
						<path style="fill:#E6E6E6;" d="M212.159,76.267c0,0,0.38,0.228,0.953,0.55c0.565,0.317,1.312,0.736,2.124,1.192
							c1.604,0.878,2.84,1.908,3.146,1.631c0.14-0.131,0-0.555-0.409-1.113c-0.407-0.555-1.115-1.238-2.06-1.755
							c-0.949-0.516-1.939-0.654-2.631-0.639C212.583,76.144,212.159,76.267,212.159,76.267z"/>
					</g>
				</g>
				<g>
					<g>
						<path style="fill:#E6E6E6;" d="M216.969,73.139c0,0,0.9-0.316,2.28-0.899c1.384-0.574,3.231-1.4,5.258-2.07
							c2.023-0.667,3.947-0.835,5.332-0.739c1.39,0.08,2.275,0.345,2.402,0.097c0.119-0.203-0.609-0.941-2.165-1.405
							c-1.537-0.476-3.848-0.506-6.154,0.26c-2.302,0.765-4.02,2.079-5.169,3.057C217.604,72.434,216.969,73.139,216.969,73.139z"/>
					</g>
					<g>
						<path style="fill:#E6E6E6;" d="M210.861,65.378c0,0,0.184,0.052,0.512,0.145c0.326,0.082,0.792,0.223,1.346,0.399
							c1.115,0.35,2.558,0.911,4.089,1.61c3.09,1.382,5.079,3.435,5.511,3.104c0.195-0.151-0.062-0.904-0.849-1.882
							c-0.778-0.975-2.129-2.125-3.878-2.931c-1.756-0.803-3.54-0.949-4.772-0.836c-0.62,0.054-1.112,0.147-1.446,0.242
							C211.046,65.325,210.861,65.378,210.861,65.378z"/>
					</g>
				</g>
			</g>
			<path style="fill:#F5F5F5;" d="M341.449,140.94c-7.832-0.978-12.49-2.079-12.49-2.079s4.182-1.605,9.738-3.426
				c0.442-2.378,2.52-4.18,5.026-4.18c1.249,0,2.378,0.465,3.267,1.208c0.855-2.962,3.581-5.131,6.818-5.131
				c2.405,0,4.527,1.199,5.812,3.028c0.037-0.003,0.074-0.005,0.111-0.008c-0.08-0.509-0.133-1.027-0.133-1.559
				c0-5.526,4.48-10.006,10.006-10.006c5.077,0,9.26,3.784,9.908,8.684c0.452-0.09,0.919-0.139,1.398-0.139
				c3.922,0,7.101,3.179,7.101,7.101c0,0.042-0.006,0.083-0.006,0.126c3.934,1.082,14.718,4.081,13.957,4.24
				c-22.562,4.698-43.436,3.98-57.038,2.541c-0.387,0.093-0.785,0.156-1.2,0.156C342.901,141.494,342.137,141.283,341.449,140.94z"
				/>
			<path style="fill:#F5F5F5;" d="M75.831,97.124c-11.854-1.48-18.905-3.147-18.905-3.147s6.33-2.429,14.739-5.186
				c0.67-3.599,3.814-6.327,7.606-6.327c1.89,0,3.599,0.704,4.944,1.828c1.294-4.484,5.42-7.766,10.32-7.766
				c3.64,0,6.852,1.814,8.796,4.583c0.056-0.004,0.112-0.008,0.168-0.012c-0.121-0.771-0.202-1.555-0.202-2.36
				c0-8.364,6.78-15.144,15.144-15.144c7.684,0,14.015,5.728,14.997,13.143c0.684-0.137,1.391-0.211,2.116-0.211
				c5.936,0,10.748,4.812,10.748,10.748c0,0.064-0.008,0.126-0.01,0.19c5.954,1.638,22.277,6.177,21.124,6.417
				c-34.148,7.111-65.743,6.023-86.329,3.846c-0.585,0.141-1.188,0.237-1.817,0.237C78.029,97.963,76.871,97.644,75.831,97.124z"/>
		</g>
		<path style="fill:#F0F0F0;" d="M227.012,343.949l18.573-0.07c1.507,0,2.725,1.223,2.725,2.725v6.545c0,1.508,1.223,2.73,2.73,2.73
			h27.216c1.507,0,2.73-1.217,2.736-2.725v-24.022c0,0,0-0.006,0-0.012c0.006-1.501,1.223-2.719,2.73-2.713h5.797
			c1.508,0,2.73-1.222,2.73-2.73v-13.113c0-1.505,1.22-2.724,2.724-2.724h9.501c1.505,0,2.725,1.22,2.725,2.724v3.861
			c0,1.508,1.222,2.73,2.73,2.73h0.887c1.505,0,2.725-1.22,2.725-2.725v-14.272c0-1.508,1.222-2.73,2.73-2.73h9.408
			c1.502,0,2.73,1.229,2.73,2.73v14.295c0,1.501,1.217,2.725,2.725,2.725h2.933c1.507,0,2.725-1.223,2.725-2.725v-28.814h-0.028
			v-14.434h0.58v8.89c0.055-0.074,0.104-0.152,0.168-0.22l21.651-12.435c0.458-0.498,0.719,0.006,0.719-0.667v-17.796l1.49-1.067
			l27.048-19.383v-7.711H389v7.296l0.11-0.079v86.426c0,1.508,1.222,2.73,2.73,2.73h3.553c1.507,0,2.73-1.217,2.73-2.725
			l0.851-32.271c0.008-0.31,0.082-0.615,0.216-0.895l5.286-11.036h0.394v-12.478c0-1.218,0.988-2.206,2.206-2.206h1.064v-8.837h0.58
			v8.837h0.559c1.218,0,2.206,0.988,2.206,2.206v0.56h2.475v-0.56c0-1.218,0.988-2.206,2.206-2.206h0.939v-8.837h0.58v8.837h0.684
			c1.218,0,2.206,0.988,2.206,2.206v12.478h0.394l5.292,11.036c0.134,0.28,0.208,0.584,0.216,0.894l0.868,32.236
			c0,1.507,1.223,2.73,2.73,2.73h4.991c1.505,0,2.724,1.22,2.724,2.725v3.756c0,1.505,1.22,2.725,2.725,2.725h3.565
			c1.327-0.006,2.464,0.945,2.69,2.255l9.495,49.9c0.035,0.168,0.052,0.342,0.052,0.516c-0.006,1.507-1.229,2.725-2.736,2.725
			H227.041C226.467,381.762,227.012,343.949,227.012,343.949z"/>
		<path style="fill:#F0F0F0;" d="M273.45,343.949l-18.573-0.07c-1.507,0-2.725,1.223-2.725,2.725v6.545
			c0,1.508-1.223,2.73-2.73,2.73h-27.217c-1.507,0-2.73-1.217-2.736-2.725v-24.022c0,0,0-0.006,0-0.012
			c-0.006-1.501-1.223-2.719-2.73-2.713h-5.797c-1.508,0-2.73-1.222-2.73-2.73v-13.113c0-1.505-1.22-2.724-2.725-2.724h-9.501
			c-1.505,0-2.725,1.22-2.725,2.724v3.861c0,1.508-1.222,2.73-2.73,2.73h-0.887c-1.505,0-2.725-1.22-2.725-2.725v-14.272
			c0-1.508-1.222-2.73-2.73-2.73h-9.408c-1.502,0-2.73,1.229-2.73,2.73v14.295c0,1.501-1.217,2.725-2.725,2.725h-2.933
			c-1.507,0-2.725-1.223-2.725-2.725v-28.814h0.028v-14.434h-0.58v8.89c-0.055-0.074-0.104-0.152-0.167-0.22l-21.651-12.435
			c-0.458-0.498-0.719,0.006-0.719-0.667v-17.796l-1.49-1.067l-27.048-19.383v-7.711h-0.58v7.296l-0.11-0.079v86.426
			c0,1.508-1.222,2.73-2.73,2.73h-3.553c-1.507,0-2.73-1.217-2.73-2.725l-0.851-32.271c-0.008-0.31-0.082-0.615-0.216-0.895
			l-5.286-11.036H95.59v-12.478c0-1.218-0.988-2.206-2.206-2.206H92.32v-8.837h-0.58v8.837h-0.559c-1.218,0-2.206,0.988-2.206,2.206
			v0.56H86.5v-0.56c0-1.218-0.988-2.206-2.206-2.206h-0.939v-8.837h-0.58v8.837h-0.684c-1.218,0-2.206,0.988-2.206,2.206v12.478
			h-0.394L74.2,281.301c-0.134,0.28-0.208,0.584-0.216,0.894l-0.868,32.236c0,1.507-1.223,2.73-2.73,2.73h-4.991
			c-1.505,0-2.724,1.22-2.724,2.725v3.756c0,1.505-1.22,2.725-2.725,2.725H56.38c-1.327-0.006-2.464,0.945-2.69,2.255l-9.495,49.9
			c-0.035,0.168-0.052,0.342-0.052,0.516c0.006,1.507,1.229,2.725,2.736,2.725h226.543
			C273.995,381.762,273.45,343.949,273.45,343.949z"/>
	</g>
</g>
<g id="Background_Simple" style="display:none;">
	<g style="display:inline;">
		<path style="fill:#407BFF;" d="M283.493,366.597c-59.119-5.267-117.697-16.323-156.546-56.345
			c-38.848-40.022-57.55-108.58-54.834-161.42c1.061-20.633,5.968-41.92,20.066-58.323c14.098-16.403,60.109-26.596,82.186-20.251
			c20.014,5.752,33.079,23.208,39.603,41.007c6.524,17.8,8.076,36.762,13.895,54.754c5.818,17.992,17.256,36.015,36.48,43.607
			c20.766,8.202,44.633,2.344,67.179-0.144c22.155-2.445,93.391,22.265,96.558,83.258c2.282,43.945-57.107,68.91-105.323,73.784
			C309.729,367.841,296.532,367.759,283.493,366.597z"/>
		<path style="opacity:0.9;fill:#FFFFFF;" d="M283.493,366.597c-59.119-5.267-117.697-16.323-156.546-56.345
			c-38.848-40.022-57.55-108.58-54.834-161.42c1.061-20.633,5.968-41.92,20.066-58.323c14.098-16.403,60.109-26.596,82.186-20.251
			c20.014,5.752,33.079,23.208,39.603,41.007c6.524,17.8,8.076,36.762,13.895,54.754c5.818,17.992,17.256,36.015,36.48,43.607
			c20.766,8.202,44.633,2.344,67.179-0.144c22.155-2.445,93.391,22.265,96.558,83.258c2.282,43.945-57.107,68.91-105.323,73.784
			C309.729,367.841,296.532,367.759,283.493,366.597z"/>
	</g>
</g>
<g id="Shadow">
	<ellipse id="_x3C_Path_x3E__2_" style="fill:#F5F5F5;" cx="250.093" cy="415.693" rx="193.889" ry="11.323"/>
</g>
<g id="Character">
	<g>
		<g>
			<g>
				<g>
					<path style="fill:#FFB87D;" d="M259.708,200.032c0.889-5.116,12.776-18.441,13.669-19.551l7.958,7.879
						c-4.518,5.825-11.343,14.104-9.469,17.243L259.708,200.032z"/>
				</g>
				<g>
					<g>
						<g>
							<path style="fill:#407BFF;" d="M266.775,184.235c4.017-4.996,12.758-18.829,20.867-15.392c0,0,6.634,6.392-0.006,15.12
								c-2.714,3.567-7.079,9.732-8.915,12.099L266.775,184.235z"/>
						</g>
					</g>
				</g>
				<g id="freepik--Character--inject-452_1_">
					<polygon style="fill:#FFC3BD;" points="277.358,393.162 270.024,390.753 266.393,408.37 273.728,410.789 					"/>
					<polygon style="fill:#FFC3BD;" points="330.428,394.468 322.737,395.131 324.67,412.901 332.361,412.238 					"/>
					<path style="fill:#263238;" d="M322.342,412.68c-1.756,1.868-6.015,4.042-11.881,5.852c-1.29,0.402-0.597,3.554,2.631,3.276
						c3.228-0.278,10.261-1.126,12.593-1.326c3.796-0.327,6.047-0.29,9.036-0.548c0.089-0.006,0.177-0.022,0.263-0.048
						c0.596-0.185,0.93-0.818,0.745-1.414l-2.104-6.704c-0.096-0.302-0.388-0.497-0.703-0.471l-9.375,0.808
						C323.088,412.139,322.658,412.345,322.342,412.68z"/>
					<path style="fill:#263238;" d="M264.479,407.24c-6.009,1.201-7.122,0.744-13.22-0.125c-1.311-0.188-1.598,3.119,1.367,4.218
						c4.915,1.825,5.074,1.811,9.224,3.37c3.586,1.317,7.637,3.015,10.472,4.116c0.084,0.033,0.171,0.055,0.26,0.067
						c0.613,0.082,1.177-0.348,1.259-0.961l0.965-6.969c0.038-0.313-0.141-0.611-0.434-0.725l-7.901-2.932
						C265.826,407.096,265.136,407.075,264.479,407.24z"/>
					<polygon style="opacity:0.2;enable-background:new    ;" points="277.368,393.171 275.492,402.256 268.157,399.837 
						270.025,390.763 					"/>
					<polygon style="opacity:0.2;enable-background:new    ;" points="331.429,403.636 323.738,404.299 322.737,395.131 
						330.428,394.468 					"/>
					<path style="fill:#407BFF;" d="M315.553,165.109c-1.099-0.056-2.227-0.099-3.332-0.114c-5.854-0.124-11.71,0.093-17.539,0.649
						c-0.749,0.085-1.453,0.185-2.112,0.302c-2.4,0.408-4.78,0.923-7.133,1.544c-1.724,0.455-3.023,1.856-3.31,3.616
						c-0.91,5.582-1.778,21.301,2.746,63.786l41.249-1.548c0.029-3.154-1.213-12.321-1.867-24.45
						c-0.276-5.185-0.447-10.892-0.355-16.922c0.092-8.633,0.822-17.247,2.185-25.773
						C326.085,166.199,321.127,165.382,315.553,165.109z"/>
					<path style="opacity:0.2;enable-background:new    ;" d="M324.623,177.998c-0.432,4.775-0.648,9.481-0.72,14.004
						c-0.017,1.206-0.024,2.401-0.012,3.584c-3.95-4.945-6.371-10.935-6.966-17.235L324.623,177.998z"/>
					<path style="fill:#263238;" d="M266.074,396.985l12.246,4.545c0,0,13.738-57.904,17.361-78.049s16.301-89.651,16.301-89.651
						l-27.115,0.992c0,0-6.953,61.625-9.006,85.088C273.729,344.313,266.074,396.985,266.074,396.985z"/>
					<path style="opacity:0.2;enable-background:new    ;" d="M299.951,300.008c2.275-12.502,4.916-27.042,7.143-39.279l-4.093-3.12
						C297.743,265.43,297.836,286.299,299.951,300.008z"/>
					<path style="fill:#263238;" d="M326.082,233.347c0,0,2.302,66.387,4.126,93.831c1.652,24.288,3.797,74.439,3.797,74.439
						l-14.088,1.214c0,0-7.224-54.461-10.097-79.055c-2.619-22.468-13.576-89.343-13.576-89.343L326.082,233.347z"/>
					<polygon style="fill:#407BFF;" points="317.676,398.016 335.12,396.844 334.849,401.856 319.386,403.189 					"/>
					<polygon style="fill:#407BFF;" points="265.758,391.573 281.521,397.451 279.057,402.159 265.234,397.018 					"/>
					<path style="fill:#407BFF;" d="M323.108,413.176c0.068-0.025,0.114-0.089,0.117-0.161c0.008-0.072-0.03-0.141-0.095-0.172
						c-0.294-0.155-2.907-1.466-3.716-0.954c-0.189,0.113-0.296,0.326-0.274,0.546c-0.024,0.38,0.152,0.746,0.465,0.964
						c0.46,0.262,0.996,0.357,1.519,0.271C321.801,413.579,322.467,413.414,323.108,413.176z M319.84,412.173
						c0.948,0.088,1.871,0.355,2.718,0.789c-0.867,0.386-1.85,0.421-2.742,0.096c-0.206-0.144-0.322-0.385-0.306-0.636
						c-0.014-0.087,0.021-0.175,0.091-0.229C319.678,412.169,319.759,412.162,319.84,412.173L319.84,412.173z"/>
					<path style="fill:#407BFF;" d="M323.159,413.182c0.054-0.038,0.083-0.102,0.076-0.167c-0.015-0.059-0.398-2.294-1.349-2.955
						c-0.231-0.164-0.52-0.223-0.797-0.162c-0.283,0.024-0.508,0.246-0.537,0.528c-0.094,0.891,1.596,2.442,2.43,2.802
						c0.027,0.008,0.055,0.005,0.08-0.007C323.097,413.218,323.131,413.204,323.159,413.182z M321.681,410.368
						c0.594,0.646,0.982,1.455,1.114,2.323c-0.849-0.529-1.935-1.72-1.878-2.227c-0.004-0.05,0.014-0.192,0.243-0.212l0.09-0.008
						C321.403,410.233,321.557,410.277,321.681,410.368z"/>
					<path style="fill:#407BFF;" d="M265.575,407.959c0.039-0.066,0.032-0.151-0.018-0.209c-0.267-0.308-2.634-2.844-3.685-2.694
						c-0.202,0.027-0.375,0.161-0.452,0.35c-0.174,0.313-0.168,0.695,0.016,1.002c0.524,0.958,2.706,1.463,3.958,1.666l0,0
						C265.474,408.084,265.55,408.035,265.575,407.959z M261.935,405.442c0.621-0.013,1.99,1.193,2.958,2.174
						c-1.664-0.328-2.833-0.84-3.132-1.406c-0.102-0.196-0.1-0.429,0.007-0.623C261.793,405.512,261.857,405.457,261.935,405.442
						l0.02-0.002L261.935,405.442z"/>
					<path style="fill:#407BFF;" d="M265.444,408.07c0.063-0.019,0.112-0.068,0.129-0.132c0.023-0.082,0.551-2.105-0.085-3.204
						c-0.183-0.323-0.49-0.557-0.849-0.65c-0.482-0.119-0.707,0.061-0.812,0.241c-0.435,0.77,0.709,2.98,1.443,3.7
						c0.032,0.034,0.078,0.052,0.125,0.049L265.444,408.07z M264.549,404.444c0.265,0.062,0.489,0.237,0.613,0.479
						c0.311,0.825,0.357,1.726,0.132,2.578c-0.697-0.863-1.412-2.528-1.151-2.992c0.04-0.067,0.115-0.105,0.192-0.097
						C264.408,404.41,264.48,404.421,264.549,404.444z"/>
					<path style="fill:#FFB87D;" d="M327.552,170.288c1.069,1.112,1.98,2.128,2.905,3.192c0.925,1.064,1.831,2.141,2.718,3.239
						c1.764,2.187,3.464,4.439,5.071,6.78c3.338,4.743,6.135,9.845,8.337,15.21c0.06,0.133,0.112,0.269,0.156,0.408l0.164,0.508
						c0.112,0.32,0.201,0.648,0.265,0.981c0.123,0.606,0.193,1.221,0.209,1.839l0.013,0.852c-0.007,0.272-0.076,0.519-0.053,0.777
						l-0.075,0.759l-0.131,0.694c-0.335,1.662-0.837,3.286-1.499,4.847c-1.182,2.716-2.599,5.324-4.236,7.793
						c-3.11,4.739-6.656,9.178-10.591,13.259l-4.573-3.561c1.261-2.257,2.615-4.591,3.871-6.908c1.256-2.316,2.471-4.639,3.545-6.96
						c1.067-2.215,1.974-4.503,2.712-6.848c0.305-0.97,0.505-1.97,0.596-2.982l0.024-0.303l-0.021-0.249
						c-0.007-0.08-0.015-0.179-0.021-0.239c-0.009-0.053-0.014-0.106-0.014-0.159c-0.016-0.179-0.009-0.1-0.016-0.179
						c-0.007-0.08,0,0,0,0l0,0l0,0c0.001,0.01-0.008-0.09-0.008-0.09c-1.126-2.199-2.363-4.341-3.705-6.415
						c-1.396-2.108-2.833-4.222-4.394-6.266c-1.561-2.043-3.152-4.084-4.801-6.09c-0.819-1.003-1.648-2.006-2.496-2.987
						l-2.485-2.857L327.552,170.288z"/>
					<path style="fill:#407BFF;" d="M317.214,181.005c4.853,8.214,10.728,16.63,10.728,16.63l13.713-13.829
						c0,0-8.213-16.917-15.57-17.608C317.191,165.37,311.897,172.069,317.214,181.005z"/>
					<path style="fill:#FFB87D;" d="M331.652,230.428c0.254,3.642-6.466,4.863-6.466,4.863l-3.796-9.108l7.827,0.329
						L331.652,230.428z"/>
					<polygon style="fill:#FFB87D;" points="321.393,226.223 325.159,235.324 319.612,237.348 316.145,229.968 					"/>
				</g>
			</g>
			<g>
				<g>
					<path style="fill:#FFB573;" d="M310.88,165.426c-0.234,0.227-0.457,0.444-0.691,0.671c-0.895,0.867-1.799,1.744-2.746,2.572
						c0,0.01-0.009,0.02-0.02,0.021c-2.591,1.367-6.107,2.921-10.071,3.858c-1.696-0.87-2.801-1.698-3.533-2.447
						c-0.302-0.751-0.427-1.578-0.31-2.382c0.049-0.362,0.169-0.725,0.339-1.06c1.671-0.669,2.703-1.62,3.29-2.748
						c0.133-0.224,0.236-0.467,0.309-0.709c0.703-1.942,0.324-4.271-0.322-6.523l10.222-9.265
						C306.491,152.599,305.941,162.45,310.88,165.426z"/>
					<path style="opacity:0.2;enable-background:new    ;" d="M303.399,154.16c-0.178,2.456-3.595,7.369-5.65,5.529
						c-0.117-1.011-0.324-2.009-0.618-2.983l6.051-5.48C303.429,152.183,303.502,153.177,303.399,154.16z"/>
				</g>
				<path style="fill:#263238;" d="M291.935,142.979l-0.588,3.339c0,0-4.576,0.828-5.492,0.492c0.273-0.686,0.997-2.095,0.709-3.189
					c-0.349-1.285-2.345-1.285-2.922-2.559c-0.577-1.275-0.733-5.688,0.443-5.982c1.177-0.294,8.271-1.52,8.271-1.52
					C297.861,135.164,291.935,142.979,291.935,142.979z"/>
				<path style="fill:#FFB573;" d="M302.823,133.284c-3.627-4.296-10.05-4.837-14.346-1.21c-6.037,5.046-3.631,15.879-0.06,21.77
					c3.965,6.531,13.758,6.969,17.39-0.235c2.413-4.786,0.97-8.923-0.869-16.157C304.566,135.917,303.841,134.49,302.823,133.284z"
					/>
				<path style="fill:#263238;" d="M307.078,150.752l-0.135-4.488l-4.5,2.874c0,0,1.313-6.036,0.363-8.504
					c-0.356-1.272-1.831-1.409-2.417-2.681c-0.587-1.272-0.73-5.71,0.44-5.991c1.17-0.281,7.14-1.398,7.14-1.398
					C313.469,132.161,307.078,150.752,307.078,150.752z"/>
				<path style="fill:#263238;" d="M293.792,142.057c-0.371,0.119-0.526,0.684-0.34,1.264c0.186,0.581,0.631,0.953,1.012,0.83
					c0.381-0.122,0.536-0.687,0.349-1.267C294.628,142.304,294.164,141.938,293.792,142.057z"/>
				<path style="fill:#263238;" d="M287.669,143.703c-0.397,0.051-0.652,0.577-0.575,1.182c0.077,0.605,0.457,1.051,0.854,1
					c0.397-0.051,0.652-0.577,0.575-1.182C288.445,144.098,288.065,143.652,287.669,143.703z"/>
				<path style="fill:#ED893E;" d="M292.21,150.053c-0.873,0.549-1.944,0.685-2.926,0.372c0.657-1.88,1.052-3.84,1.175-5.828
					L292.21,150.053z"/>
				<path style="fill:#263238;" d="M295.78,139.748c0.003-0.004,0.005-0.008,0.007-0.012c0.096-0.168,0.039-0.382-0.129-0.478
					c-0.969-0.617-2.178-0.721-3.239-0.281c-0.004,0.002-0.007,0.003-0.011,0.005c-0.172,0.087-0.241,0.298-0.154,0.471
					c0.088,0.175,0.299,0.248,0.476,0.164c0.844-0.331,1.796-0.237,2.559,0.253c0.098,0.056,0.217,0.064,0.321,0.022
					C295.682,139.864,295.741,139.814,295.78,139.748z"/>
				<path style="fill:#263238;" d="M285.47,142.512c0.321-0.85,1.029-1.495,1.905-1.736l0,0c0.148-0.054,0.244-0.198,0.237-0.355
					c-0.009-0.199-0.177-0.352-0.376-0.343c-1.11,0.289-2.013,1.095-2.425,2.165c-0.004,0.008-0.007,0.017-0.01,0.026
					c-0.061,0.177,0.032,0.371,0.21,0.433c0.05,0.008,0.102,0.001,0.149-0.019C285.285,142.685,285.404,142.62,285.47,142.512z"/>
				<path style="fill:#FFB573;" d="M306.651,139.37c-2.078,0.78-2.579,4.154-2.273,6.248c0.342,2.333,2.156,3.721,3.833,2.056
					c1.291-1.317,2.047-3.067,2.122-4.91C310.437,140.464,308.728,138.591,306.651,139.37z"/>
				<g>
					<path style="fill:#263238;" d="M284.91,136.508c-1.596-0.036-2.695-1.845-2.518-3.432c0.177-1.587,0.947-3.352,2.387-4.043
						c5.27-2.529,8.132-6.517,9.397-6.699c0.378-0.054,4.477,1.65,13.137,4.595c1.452,0.494,1.786,4.06,0.783,5.221
						c-0.565,0.654-1.433,0.947-2.267,1.175c-3.651,1.001-7.492,1.304-11.255,0.888c-0.862-0.095-1.762-0.224-2.578,0.071
						c-0.816,0.295-2.202,1.461-1.928,2.284c-0.669-0.998-1.379-1.525-2.531-1.182C286.387,135.729,284.91,136.508,284.91,136.508z"
						/>
				</g>
				<g>
					<path style="fill:#2E353A;" d="M292.311,152.705c0.587,0.845,1.311,2.496,1.311,2.496c0.162-0.039,0.323-0.077,0.482-0.124
						c2.175-0.58,2.993-1.568,3.24-2.487c0.133-0.503,0.089-0.99,0.003-1.374c-0.095-0.445-0.265-0.74-0.265-0.74
						c-0.969,0.996-2.956,1.693-4.032,2.021C292.6,152.637,292.311,152.705,292.311,152.705z"/>
					<path style="fill:#FFFFFF;" d="M293.05,152.496l0.406,0.726c2.048-0.551,3.415-1.214,3.891-2.006
						c-0.095-0.445-0.265-0.74-0.265-0.74C296.112,151.471,294.126,152.168,293.05,152.496z"/>
					<path style="fill:#DE5753;" d="M294.104,155.076c2.175-0.58,2.993-1.568,3.24-2.487c-0.734,0.226-1.593,0.581-2.288,1.123
						C294.523,154.124,294.25,154.615,294.104,155.076z"/>
				</g>
			</g>
		</g>
		<g>
			<g>
				<g>
					<g>
						<g>
							<g>
								<path style="fill:#FFB87D;" d="M261.535,196.753l29.379,2.68l2.001,5.161c0,0-27.369,5.24-31.826,2.477h0
									c-2.064-2.317-2.368-5.712-0.75-8.36L261.535,196.753z"/>
							</g>
						</g>
						<path style="fill:#FFB87D;" d="M290.914,199.432l4.491,0.313c1.391,0.097,2.69,0.729,3.624,1.764l3.581,3.968
							c0.43,0.477,0.446,1.197,0.038,1.692l-2.279,2.768c-0.417,0.506-1.147,0.621-1.699,0.268l-4.692-3.002l-4.971-3.623
							C289.006,203.581,289.186,199.312,290.914,199.432z"/>
					</g>
				</g>
			</g>
			<g>
				<polygon style="fill:#263238;" points="288.361,205.802 290.638,205.37 290.956,198.678 288.704,198.571 				"/>
				<path style="fill:#263238;" d="M287.367,199.264l5.038,0.239l0.023-0.477c0.026-0.541-0.392-1.001-0.934-1.027l-3.078-0.146
					c-0.541-0.026-1.001,0.392-1.027,0.934L287.367,199.264z"/>
			</g>
		</g>
	</g>
</g>
<g id="Interface_2">
	<g>
		<g>
			<g>
				<polygon style="fill:#407BFF;" points="233.733,162.98 276.021,185.008 265.574,162.505 233.733,162.98 				"/>
				<g>
					<polygon style="opacity:0.3;fill:#F5F5F5;" points="233.733,162.98 276.021,185.008 265.574,162.505 233.733,162.98 					"/>
					<g>
						<path style="fill:#407BFF;" d="M263.198,162.98h-90.772c-4.725,0-8.554-3.83-8.554-8.554V70.307
							c0-4.725,3.83-8.554,8.554-8.554h90.772c4.724,0,8.555,3.83,8.555,8.554v84.119C271.753,159.15,267.922,162.98,263.198,162.98
							z"/>
						<path style="opacity:0.3;fill:#F5F5F5;" d="M263.198,162.98h-90.772c-4.725,0-8.554-3.83-8.554-8.554V70.307
							c0-4.725,3.83-8.554,8.554-8.554h90.772c4.724,0,8.555,3.83,8.555,8.554v84.119C271.753,159.15,267.922,162.98,263.198,162.98
							z"/>
					</g>
				</g>
			</g>
			<g>
				<path style="fill:#407BFF;" d="M277.654,187.218l-44.212-23.238H172.43c-5.271,0-9.56-4.284-9.56-9.55V70.31
					c0-5.271,4.289-9.56,9.56-9.56h90.77c5.266,0,9.55,4.289,9.55,9.56v84.12c0,3.876-2.397,7.383-5.934,8.843L277.654,187.218z
					 M172.43,62.75c-4.169,0-7.56,3.392-7.56,7.56v84.12c0,4.163,3.391,7.55,7.56,7.55h61.589l40.374,20.822l-10.002-20.844
					l0.936-0.277c3.193-0.945,5.424-3.926,5.424-7.251V70.31c0-4.168-3.387-7.56-7.55-7.56H172.43z"/>
			</g>
			<g style="opacity:0.6;">
				<path style="fill:#FFFFFF;" d="M277.654,187.218l-44.212-23.238H172.43c-5.271,0-9.56-4.284-9.56-9.55V70.31
					c0-5.271,4.289-9.56,9.56-9.56h90.77c5.266,0,9.55,4.289,9.55,9.56v84.12c0,3.876-2.397,7.383-5.934,8.843L277.654,187.218z
					 M172.43,62.75c-4.169,0-7.56,3.392-7.56,7.56v84.12c0,4.163,3.391,7.55,7.56,7.55h61.589l40.374,20.822l-10.002-20.844
					l0.936-0.277c3.193-0.945,5.424-3.926,5.424-7.251V70.31c0-4.168-3.387-7.56-7.55-7.56H172.43z"/>
			</g>
		</g>
		<g>
			<path style="fill:#263238;" d="M195.571,104.123c-0.027,0.239,8.488-1.125,17.117,1.327c5.677,1.613,12.075,8.36,12.075,8.36
				s2.654-24.283-0.664-31.846C220.783,74.399,199.684,67.101,195.571,104.123z"/>
			<g>
				<g>
					<g>
						<g>
							<path style="fill:#EEC8C0;" d="M220.882,113.582c0.01,0.617,0.031,0.967,0.055,1.423l0.105,1.269
								c0.084,0.828,0.209,1.654,0.33,2.465c0.269,1.635,0.62,3.256,1.053,4.856c0.89,3.25,2.182,6.376,3.848,9.305
								c3.419,6.207,8.92,11.008,15.532,13.557c1.134,0.482,2.34,0.778,3.569,0.875c1.375,0.082,2.752-0.12,4.046-0.594
								c2.023-0.8,3.832-2.061,5.283-3.682c2.23-2.527,4.065-5.377,5.443-8.453c2.538-5.594,4.418-11.463,5.603-17.49l-5.046-1.474
								c-1.112,2.575-2.289,5.242-3.575,7.781c-1.286,2.54-2.597,5.053-4.052,7.365c-1.292,2.174-2.87,4.165-4.692,5.919
								c-0.554,0.553-1.234,0.962-1.983,1.191c-0.189,0.035-0.199,0.029-0.287-0.021c-0.088-0.051,0.112-0.014-0.636-0.365
								c-4.328-2.045-7.854-5.47-10.023-9.737c-1.159-2.235-2.062-4.594-2.693-7.031c-0.003-0.012-0.007-0.025-0.01-0.038
								c-1.016-3.879-4.358-6.704-8.361-6.926L220.882,113.582z"/>
							<path style="fill:#EEC8C0;" d="M265.293,119.244c3.038-3.031,2.413-8.135,2.413-8.135l-10.942-0.874l4.366,7.924
								L265.293,119.244z"/>
							<polygon style="fill:#EEC8C0;" points="256.754,110.254 267.695,111.128 265.626,103.44 257.616,101.307 							"/>
						</g>
						<g>
							<path style="fill:#407BFF;" d="M233.28,141.42c-0.13,0.54-0.28,1.09-0.43,1.66c-1.21,4.58-2.85,10.21-3.86,18.56h-35.67
								c-0.14-7.86-1.37-20.11-2.38-29.86c-0.27-2.68-0.53-5.16-0.75-7.32c-0.01-0.02-0.01-0.06-0.01-0.09
								c-0.16-1.6-0.3-3.01-0.4-4.18c-0.01-0.01-0.01-0.02,0-0.02c-0.01-0.13-0.03-0.25-0.03-0.37c-0.16-1.9,1.07-3.64,2.91-4.11
								c0.66-0.17,1.31-0.33,1.95-0.47h0.01c2.85-0.68,5.51-1.2,8.01-1.58c0.33-0.05,0.66-0.1,0.98-0.15
								c0.01,0.01,0.01,0.01,0.02,0.02l0.1,0.08l0.18,0.2l1.58,1.28l0.02,0.01l1.66,1.07l2.61,1.67l0.52,0.09l3.06,0.57l2.84-0.6
								l0.66-0.14l2.24-2.93l0.01-0.01l0.07-0.1l0.46-1.76v-0.06h0.03c2.16,0.22,3.71,0.47,4.93,0.76c0.06,0.02,0.12,0.03,0.17,0.04
								c0.36,0.1,0.68,0.19,0.99,0.28c0.01,0.01,0.01,0.01,0.02,0.01h0.01c1.23,0.39,2.1,0.83,3.07,1.31
								c0.09,0.04,0.18,0.09,0.26,0.15c0.01,0,0.01,0.01,0.01,0.01c0.34,0.19,0.64,0.44,0.9,0.73c0.01,0.02,0.04,0.04,0.06,0.07
								c0.55,0.66,0.88,1.49,0.91,2.38c0.06,2.12,2.36,6.47,3.25,12.78C234.72,134.78,234.21,137.81,233.28,141.42z"/>
							<path style="opacity:0.2;" d="M233.28,141.42c-0.13,0.54-0.28,1.09-0.43,1.66c-1.21,4.58-2.85,10.21-3.86,18.56h-35.67
								c-0.14-7.86-1.37-20.11-2.38-29.86c-0.27-2.68-0.53-5.16-0.75-7.32c-0.01-0.02-0.01-0.06-0.01-0.09
								c-0.16-1.6-0.3-3.01-0.4-4.18c-0.01-0.01-0.01-0.02,0-0.02c-0.01-0.13-0.03-0.25-0.03-0.37c-0.16-1.9,1.07-3.64,2.91-4.11
								c0.66-0.17,1.31-0.33,1.95-0.47h0.01c2.85-0.68,5.51-1.2,8.01-1.58c0.33-0.05,0.66-0.1,0.98-0.15
								c0.01,0.01,0.01,0.01,0.02,0.02l0.1,0.08l0.18,0.2l1.58,1.28l0.02,0.01l1.66,1.07l2.61,1.67l0.52,0.09l3.06,0.57l2.84-0.6
								l0.66-0.14l2.24-2.93l0.01-0.01l0.07-0.1l0.46-1.76v-0.06h0.03c2.16,0.22,3.71,0.47,4.93,0.76c0.06,0.02,0.12,0.03,0.17,0.04
								c0.36,0.1,0.68,0.19,0.99,0.28c0.01,0.01,0.01,0.01,0.02,0.01h0.01c1.23,0.39,2.1,0.83,3.07,1.31
								c0.09,0.04,0.18,0.09,0.26,0.15c0.01,0,0.01,0.01,0.01,0.01c0.34,0.19,0.64,0.44,0.9,0.73c0.01,0.02,0.04,0.04,0.06,0.07
								c0.55,0.66,0.88,1.49,0.91,2.38c0.06,2.12,2.36,6.47,3.25,12.78C234.72,134.78,234.21,137.81,233.28,141.42z"/>
							<path style="fill:#EEC8C0;" d="M205.459,113.232c2.913-2.89,2.161-16.27,2.161-16.27l8.114,5.86c0,0,0.257,8.269,2.187,9.918
								c0.452,0.386,1.144,0.09,1.698,0.143l-0.563,2.085l-1.614,2.568l-2.168,1.446l-3.131-0.089l-2.789-0.884l-3.15-2.334
								l-2.559-2.185C204.253,113.4,205.039,113.649,205.459,113.232z"/>
							<path style="opacity:0.1;" d="M216.241,105.123c-5.424-0.775-7.848-3.669-8.917-5.938l0.295-2.223l8.115,5.86
								L216.241,105.123z"/>
							<g>
								<path style="fill:#407BFF;" d="M219.696,112.669c0,0-2.956,10.627-16.09,0.819
									C203.606,113.488,217.145,129.793,219.696,112.669z"/>
							</g>
							<path style="fill:#EEC8C0;" d="M204.468,88.299c1.547,6.925,2.059,9.879,6.164,12.895c6.177,4.546,14.341,1.121,14.894-6.118
								c0.487-6.522-2.137-16.783-9.426-18.423c-5.199-1.226-10.408,1.994-11.634,7.194
								C204.12,85.311,204.121,86.836,204.468,88.299z"/>
							<path style="fill:#263238;" d="M215.902,88.339c0.097,0.568,0.473,0.982,0.84,0.927c0.367-0.055,0.602-0.575,0.515-1.142
								c-0.087-0.567-0.473-0.982-0.84-0.927C216.049,87.252,215.845,87.794,215.902,88.339z"/>
							<path style="fill:#263238;" d="M222.331,87.321c0.097,0.578,0.473,0.982,0.84,0.927c0.368-0.055,0.602-0.575,0.515-1.142
								c-0.087-0.567-0.473-0.982-0.841-0.917C222.477,86.254,222.244,86.753,222.331,87.321z"/>
							<path style="fill:#263238;" d="M222.686,86.243l1.302-0.614C223.988,85.63,223.461,86.813,222.686,86.243z"/>
							<path style="fill:#ED893E;" d="M220.514,88.67c0.719,1.217,1.601,2.33,2.621,3.308c-0.525,0.509-1.244,0.767-1.973,0.706
								L220.514,88.67z"/>
							<path style="fill:#263238;" d="M213.109,87.462c0.148,0.002,0.28-0.093,0.324-0.235c0.473-1.009,1.346-1.774,2.408-2.112
								c0.181-0.055,0.283-0.246,0.229-0.427c-0.053-0.176-0.239-0.276-0.415-0.223c-0.004,0.001-0.008,0.002-0.012,0.004
								c-1.279,0.397-2.322,1.331-2.857,2.559c-0.055,0.176,0.043,0.363,0.219,0.417h0
								C213.038,87.462,213.074,87.467,213.109,87.462z"/>
							<path style="fill:#263238;" d="M223.785,84.046c0.123-0.001,0.237-0.067,0.3-0.173c0.092-0.163,0.038-0.369-0.123-0.465
								c-0.936-0.59-2.105-0.674-3.116-0.226c-0.162,0.074-0.234,0.266-0.159,0.428c0.004,0.008,0.008,0.016,0.012,0.023
								c0.082,0.165,0.282,0.232,0.447,0.15c0.002-0.001,0.003-0.002,0.005-0.003l0,0c0.801-0.322,1.706-0.242,2.439,0.214
								C223.647,84.031,223.716,84.049,223.785,84.046z"/>
							<path style="fill:#263238;" d="M216.254,87.314l1.302-0.614C217.556,86.701,217.031,87.842,216.254,87.314z"/>
							<path style="fill:#EEC8C0;" d="M203.429,93.982c0.64,1.181,1.721,2.062,3.007,2.451c1.717,0.491,2.595-1.04,2.133-2.678
								c-0.428-1.47-1.83-3.499-3.559-3.302c-1.252,0.183-2.118,1.346-1.936,2.597C203.122,93.383,203.243,93.701,203.429,93.982z"
								/>
							<g>
								<path style="fill:#2E353A;" d="M221.684,95.245c-0.247,0.999-0.337,2.799-0.337,2.799c-0.165,0.021-0.329,0.043-0.495,0.055
									c-2.239,0.233-3.355-0.399-3.913-1.171c-0.303-0.423-0.436-0.894-0.492-1.283c-0.07-0.45-0.016-0.786-0.016-0.786
									c1.261,0.586,3.365,0.53,4.488,0.453C221.39,95.285,221.684,95.245,221.684,95.245z"/>
								<path style="fill:#FFFFFF;" d="M220.92,95.312l-0.121,0.823c-2.11,0.214-3.624,0.081-4.351-0.49
									c-0.07-0.45-0.016-0.786-0.016-0.786C217.693,95.445,219.797,95.389,220.92,95.312z"/>
								<path style="fill:#DE5753;" d="M220.853,98.099c-2.239,0.233-3.355-0.399-3.913-1.171c0.766-0.05,1.695-0.025,2.538,0.235
									C220.122,97.359,220.553,97.719,220.853,98.099z"/>
							</g>
						</g>
						<g>
							<path style="fill:#EEC8C0;" d="M198.04,126.04c-0.75,0.57-1.38,1.05-1.67,1.28c-1.85,1.46-3.65,2.95-5.43,4.46
								c-0.23,0.19-0.45,0.38-0.68,0.57c-2,1.7-3.9,3.49-5.75,5.29c-1.78,1.78-3.48,3.65-5.08,5.6c0,0-0.03,0.09-0.03,0.08
								c-0.03,0.08,0,0-0.06,0.18c-0.01,0.05-0.02,0.1-0.04,0.15c-0.02,0.06-0.05,0.16-0.08,0.24l-0.07,0.24l-0.04,0.31
								c-0.13,0.89-0.17,1.8-0.09,2.7c0.22,2.63,0.63,5.25,1.25,7.82c0.49,2.21,1.08,4.44,1.73,6.68h-8.62
								c-0.62-1.38-1.2-2.78-1.74-4.2c-1.1-2.82-1.95-5.73-2.53-8.7c-0.32-1.7-0.47-3.42-0.45-5.15l0.03-0.72l0.09-0.78
								c0.07-0.25,0.06-0.51,0.11-0.79l0.2-0.84c0.15-0.61,0.35-1.21,0.61-1.79c0.13-0.32,0.29-0.63,0.47-0.92l0.28-0.47
								c0.07-0.13,0.15-0.25,0.24-0.37c3.36-4.88,7.26-9.36,11.62-13.36c2.11-1.98,4.3-3.86,6.53-5.66
								c0.36-0.28,1.07-0.83,1.91-1.46c1.16-0.87,2.53-1.26,3.87-1.21c1.84,0.07,3.62,0.98,4.74,2.62
								C201.17,120.48,200.59,124.09,198.04,126.04z"/>
						</g>
					</g>
				</g>
				<g>
					<path style="fill:#263238;" d="M214.139,71.374c5.908,1.412,10.704,6.655,11.587,12.665c-1.467-0.278-2.131,0.754-3.585,1.091
						c-0.947-2.142-3.608-4.892-5.775-5.778c-0.674,1.807-1.348,3.615-2.023,5.422c-0.365,0.98-0.876,3.211-0.876,3.211
						s-3.058,0.139-4.282,0.437c0,0-1.862-7.218-0.103-12.046c0.75-2.059,1.667-4.232,3.549-5.357L214.139,71.374z"/>
				</g>
			</g>
			<g>
				<path style="fill:#263238;" d="M212.165,71.008c-2.083-0.405-4.314,0.127-6.098,1.1c-1.784,0.973-3.18,2.351-4.446,3.77
					c-5.594,6.271-9.162,13.999-8.49,21.755c0.672,7.756,6.051,15.41,14.596,18.746c-5.213-12.264-3.726-26.338,3.98-37.68
					c0.817-1.202,1.707-2.389,2.19-3.707C214.379,73.673,212.165,71.008,212.165,71.008z"/>
			</g>
		</g>
		<g>
			<g>
				<path style="fill:#407BFF;" d="M228.746,147.779c0,5.349-4.336,9.685-9.685,9.685c-5.349,0-9.685-4.336-9.685-9.685
					c0-5.349,4.336-9.685,9.685-9.685C224.41,138.094,228.746,142.43,228.746,147.779z"/>
				<g>
					<path style="fill:#FFFFFF;" d="M255.252,147.779c0,5.349-4.336,9.685-9.685,9.685c-5.349,0-9.685-4.336-9.685-9.685
						c0-5.349,4.336-9.685,9.685-9.685C250.916,138.094,255.252,142.43,255.252,147.779z"/>
					<g>
						<rect x="240.703" y="145.782" style="fill:#263238;" width="5.525" height="4.277"/>
						<polygon style="fill:#263238;" points="246.714,149.134 246.714,146.511 250.613,144.422 250.613,151.223 						"/>
					</g>
				</g>
				<path style="fill:#FFFFFF;" d="M226.198,148.937l0,1.061h-3.397l0-1.061h0.29l0.108-1.436c-0.892-1.399-2.568-1.14-3.914-1.098
					c-1.257,0.039-2.779-0.183-3.595,1.093l0.13,1.441h0.29l0,1.061h-3.396l0-1.061h0.423l0.486-1.486
					c0.042-0.128,0.161-0.214,0.295-0.214l0,0c0.879-1.935,2.891-2.446,5.316-2.52c2.515-0.076,4.759,0.45,5.714,2.468l0.025,0.054
					l0,0c0.135-0.019,0.264,0.061,0.306,0.19l0.494,1.509H226.198z"/>
			</g>
			<g>
				<path style="fill:#FFFFFF;" d="M202.24,147.779c0,5.349-4.336,9.685-9.685,9.685s-9.685-4.336-9.685-9.685
					c0-5.349,4.336-9.685,9.685-9.685C197.904,138.094,202.24,142.43,202.24,147.779z"/>
				<path style="opacity:0.3;" d="M202.24,147.779c0,5.349-4.336,9.685-9.685,9.685s-9.685-4.336-9.685-9.685
					c0-5.349,4.336-9.685,9.685-9.685C197.904,138.094,202.24,142.43,202.24,147.779z"/>
			</g>
			<g>
				<g>
					<path style="fill:#263238;" d="M192.686,149.275L192.686,149.275c-0.93,0-1.683-0.754-1.683-1.683v-4.285
						c0-0.93,0.754-1.683,1.683-1.683l0,0c0.929,0,1.683,0.754,1.683,1.683v4.285C194.369,148.521,193.615,149.275,192.686,149.275z
						"/>
					<path style="fill:#263238;" d="M195.67,144.676c-0.237,0-0.429,0.192-0.429,0.429v2.601c0,1.408-1.115,2.552-2.508,2.618
						c-1.392-0.066-2.507-1.21-2.507-2.618v-2.601c0-0.237-0.192-0.429-0.429-0.429c-0.237,0-0.429,0.192-0.429,0.429v2.601
						c0,1.779,1.338,3.251,3.06,3.463v1.769h-1.368c-0.237,0-0.429,0.192-0.429,0.429s0.192,0.429,0.429,0.429h3.472
						c0.237,0,0.429-0.192,0.429-0.429s-0.192-0.429-0.429-0.429h-1.245v-1.811c1.602-0.316,2.814-1.728,2.814-3.421v-2.601
						C196.099,144.868,195.907,144.676,195.67,144.676z"/>
				</g>
				<g>
					<path style="fill:#263238;" d="M196.102,153.369c-0.174,0-0.343-0.091-0.435-0.253l-6.044-10.609
						c-0.137-0.24-0.053-0.545,0.187-0.682c0.239-0.137,0.545-0.053,0.682,0.187l6.044,10.609c0.137,0.24,0.053,0.545-0.187,0.682
						C196.27,153.348,196.186,153.369,196.102,153.369z"/>
				</g>
			</g>
		</g>
	</g>
	<g>
		<path style="fill:#FFFFFF;" d="M285.979,196.266c-0.095-0.03-0.182-0.091-0.244-0.179l-4.693-6.596
			c-0.154-0.216-0.104-0.516,0.113-0.669c0.216-0.154,0.516-0.104,0.669,0.113l4.694,6.596c0.154,0.216,0.104,0.516-0.113,0.669
			C286.276,196.291,286.118,196.31,285.979,196.266z"/>
	</g>
	<g>
		<path style="fill:#FFFFFF;" d="M289.766,193.97c-0.173-0.072-0.295-0.243-0.295-0.443l-0.004-17.843c0-0.265,0.215-0.48,0.48-0.48
			c0.265-0.001,0.48,0.215,0.48,0.48l0.004,17.843c0,0.266-0.215,0.48-0.48,0.48C289.886,194.008,289.823,193.994,289.766,193.97z"
			/>
	</g>
	<g>
		<path style="fill:#FFFFFF;" d="M293.456,196.541c-0.003-0.001-0.005-0.002-0.007-0.004c-0.237-0.118-0.335-0.406-0.217-0.644
			l4.505-9.075c0.118-0.237,0.395-0.331,0.644-0.216c0.237,0.118,0.334,0.406,0.216,0.644l-4.504,9.075
			C293.975,196.555,293.692,196.653,293.456,196.541z"/>
	</g>
</g>
<g id="Interface_1">
	<g>
		<g>
			<g>
				<path style="fill:#407BFF;" d="M123.109,175.786H226.93c2.762,0,5.179,2.417,5.179,5.179v24.969l29.357,0.18l-29.357,15.172
					v69.679c0,2.762-2.417,4.821-5.179,4.821h-104c-2.761,0-4.821-2.06-4.821-4.821v-110c0-2.762,2.06-5.179,4.821-5.179
					 M122.93,173.786c-3.86,0-6.821,3.319-6.821,7.179v110c0,3.859,2.961,6.821,6.821,6.821h104c3.86,0,7.179-2.962,7.179-6.821
					v-68.705l28.524-14.572l4.425-3.521l-5.663-0.053l-27.287-0.162v-22.987c0-3.86-3.319-7.179-7.179-7.179H122.93L122.93,173.786z
					"/>
				<path style="opacity:0.6;fill:#FFFFFF;" d="M123.109,175.786H226.93c2.762,0,5.179,2.417,5.179,5.179v24.969l29.357,0.18
					l-29.357,15.172v69.679c0,2.762-2.417,4.821-5.179,4.821h-104c-2.761,0-4.821-2.06-4.821-4.821v-110
					c0-2.762,2.06-5.179,4.821-5.179 M122.93,173.786c-3.86,0-6.821,3.319-6.821,7.179v110c0,3.859,2.961,6.821,6.821,6.821h104
					c3.86,0,7.179-2.962,7.179-6.821v-68.705l28.524-14.572l4.425-3.521l-5.663-0.053l-27.287-0.162v-22.987
					c0-3.86-3.319-7.179-7.179-7.179H122.93L122.93,173.786z"/>
				<path style="fill:#263238;" d="M118.109,180.966v110c0,2.761,2.06,4.82,4.82,4.82h104c2.76,0,5.18-2.06,5.18-4.82v-69.68
					l29.36-15.17l-29.36-0.18v-24.97c0-2.76-2.42-5.18-5.18-5.18h-104C120.169,175.786,118.109,178.205,118.109,180.966z"/>
			</g>
			<g>
				<polygon style="fill:#F5F5F5;" points="156.906,278.143 143.416,247.604 128.742,247.604 128.742,246.604 144.068,246.604 
					156.26,274.207 160.72,225.314 171.842,260.633 179.657,234.315 189.146,256.497 196.574,236.286 204.88,255.068 
					209.798,244.55 224.742,244.55 224.742,245.55 210.435,245.55 204.854,257.482 196.66,238.952 189.217,259.204 179.827,237.255 
					171.87,264.051 161.263,230.368 				"/>
			</g>
			<g>
				<g>
					<g>
						<g>
							<path style="fill:#FFFFFF;" d="M139.976,214.105c0,1.931-1.58,3.146-3.579,3.146c-2.607,0-4.227-1.634-4.227-4.686
								c0-3.268,1.971-5.091,4.821-5.091c0.999,0,1.972,0.229,2.633,0.648l-0.811,1.607c-0.526-0.351-1.134-0.473-1.769-0.473
								c-1.58,0-2.593,0.932-2.66,2.742c0.554-0.554,1.351-0.837,2.336-0.837C138.544,211.161,139.976,212.322,139.976,214.105z
								 M137.856,214.212c0-0.864-0.635-1.418-1.607-1.418c-0.959,0-1.634,0.594-1.634,1.418c0,0.811,0.608,1.404,1.661,1.404
								C137.207,215.617,137.856,215.077,137.856,214.212z"/>
							<path style="fill:#FFFFFF;" d="M140.772,212.362c0-3.119,1.729-4.888,4.051-4.888c2.336,0,4.051,1.769,4.051,4.888
								c0,3.12-1.715,4.889-4.051,4.889C142.501,217.251,140.772,215.482,140.772,212.362z M146.673,212.362
								c0-2.147-0.756-3.038-1.85-3.038c-1.08,0-1.836,0.891-1.836,3.038c0,2.147,0.756,3.039,1.836,3.039
								C145.917,215.401,146.673,214.51,146.673,212.362z"/>
						</g>
					</g>
					<g>
						<g>
							<path style="fill:#FFFFFF;" d="M208.95,214.348c0,1.782-1.593,2.903-3.997,2.903c-2.39,0-3.97-1.121-3.97-2.903
								c0-1.013,0.527-1.769,1.432-2.229c-0.703-0.432-1.094-1.094-1.094-1.944c0-1.661,1.486-2.701,3.633-2.701
								c2.174,0,3.66,1.04,3.66,2.701c0,0.851-0.405,1.513-1.107,1.944C208.424,212.579,208.95,213.335,208.95,214.348z
								 M206.736,214.28c0-0.837-0.689-1.351-1.783-1.351c-1.08,0-1.755,0.513-1.755,1.351c0,0.837,0.675,1.364,1.755,1.364
								C206.047,215.644,206.736,215.117,206.736,214.28z M203.495,210.27c0,0.715,0.567,1.161,1.458,1.161
								c0.905,0,1.485-0.446,1.485-1.161c0-0.743-0.594-1.188-1.485-1.188C204.075,209.081,203.495,209.526,203.495,210.27z"/>
							<path style="fill:#FFFFFF;" d="M218.605,215.104h-1.54v1.985h-2.133v-1.985h-5.091v-1.472l4.457-5.996h2.295l-4.132,5.685
								H215v-1.769h2.066v1.769h1.54V215.104z"/>
						</g>
					</g>
				</g>
				<g>
					<g>
						<g>
							<g>
								<g>
									<path style="fill:#407BFF;" d="M168.546,219.504l-2.57,0.009c2.198,2.273,5.361,4.512,8.366,6.777l2.042,1.486
										c0.01,0.01,0.031,0.02,0.046,0.03l1.975-1.663c2.522-2.199,5.181-4.494,7.057-6.772l-3.815,0.014l-1.692-5.729
										l-2.454,11.002l-2.342-5.62l-1.436,3.145l-1.727-5.49l-1.88,5.371L168.546,219.504z"/>
								</g>
								<g>
									<path style="fill:#407BFF;" d="M165.426,217.72l3.449-0.012l1.089,1.779l2.056-5.875l1.799,5.723l1.361-2.982l2.147,5.148
										l2.549-11.404l2.207,7.49l3.85-0.014c2.351-3.062,3.133-6.067,0.07-8.722c-3.832-3.329-8.245-0.199-10.478,1.831
										c-2.369-1.866-7.568-5.684-11.529-0.679C162.006,212.517,163.217,215.239,165.426,217.72z"/>
								</g>
							</g>
						</g>
					</g>
					<g style="opacity:0.6;">
						<g>
							<g>
								<g>
									<path style="fill:#407BFF;" d="M168.546,219.504l-2.57,0.009c2.198,2.273,5.361,4.512,8.366,6.777l2.042,1.486
										c0.01,0.01,0.031,0.02,0.046,0.03l1.975-1.663c2.522-2.199,5.181-4.494,7.057-6.772l-3.815,0.014l-1.692-5.729
										l-2.454,11.002l-2.342-5.62l-1.436,3.145l-1.727-5.49l-1.88,5.371L168.546,219.504z"/>
								</g>
								<g>
									<path style="fill:#407BFF;" d="M165.426,217.72l3.449-0.012l1.089,1.779l2.056-5.875l1.799,5.723l1.361-2.982l2.147,5.148
										l2.549-11.404l2.207,7.49l3.85-0.014c2.351-3.062,3.133-6.067,0.07-8.722c-3.832-3.329-8.245-0.199-10.478,1.831
										c-2.369-1.866-7.568-5.684-11.529-0.679C162.006,212.517,163.217,215.239,165.426,217.72z"/>
								</g>
							</g>
						</g>
					</g>
				</g>
			</g>
		</g>
		<g>
			<path style="fill:#FFFFFF;" d="M139.555,225.23v2.625h-0.611v-2.565c0-0.955-0.482-1.446-1.299-1.446
				c-0.93,0-1.515,0.602-1.515,1.635v2.375h-0.611v-2.565c0-0.955-0.482-1.446-1.308-1.446c-0.921,0-1.515,0.602-1.515,1.635v2.375
				h-0.611v-4.527h0.585v0.826c0.318-0.542,0.904-0.86,1.661-0.86c0.749,0,1.334,0.318,1.609,0.955
				c0.327-0.585,0.973-0.955,1.79-0.955C138.832,223.294,139.555,223.93,139.555,225.23z"/>
			<path style="fill:#FFFFFF;" d="M141.074,221.899c0-0.232,0.198-0.431,0.447-0.431c0.25,0,0.448,0.189,0.448,0.422
				c0,0.25-0.189,0.447-0.448,0.447C141.272,222.338,141.074,222.14,141.074,221.899z M141.212,223.328h0.611v4.527h-0.611V223.328z
				"/>
			<path style="fill:#FFFFFF;" d="M147.691,225.23v2.625h-0.611v-2.565c0-0.955-0.499-1.446-1.36-1.446
				c-0.972,0-1.583,0.602-1.583,1.635v2.375h-0.611v-4.527h0.585v0.835c0.327-0.551,0.938-0.869,1.721-0.869
				C146.934,223.294,147.691,223.93,147.691,225.23z"/>
		</g>
		<g>
			<path style="fill:#FFFFFF;" d="M206.145,225.439c0,0.879-0.65,1.381-1.942,1.381h-2.378v-5.17h2.23
				c1.152,0,1.817,0.488,1.817,1.33c0,0.591-0.318,0.982-0.791,1.174C205.747,224.302,206.145,224.738,206.145,225.439z
				 M202.372,222.101v1.876h1.647c0.827,0,1.307-0.318,1.307-0.938c0-0.62-0.48-0.938-1.307-0.938H202.372z M205.599,225.395
				c0-0.672-0.495-0.967-1.403-0.967h-1.824v1.942h1.824C205.105,226.37,205.599,226.074,205.599,225.395z"/>
			<path style="fill:#FFFFFF;" d="M211.441,223.423c0,1.101-0.798,1.765-2.112,1.765h-1.388v1.632h-0.547v-5.17h1.935
				C210.644,221.65,211.441,222.315,211.441,223.423z M210.895,223.423c0-0.827-0.547-1.3-1.581-1.3h-1.374v2.585h1.374
				C210.348,224.708,210.895,224.235,210.895,223.423z"/>
			<path style="fill:#FFFFFF;" d="M217.992,221.65v5.17h-0.524v-4.136l-2.031,3.479h-0.258l-2.031-3.457v4.114h-0.524v-5.17h0.451
				l2.245,3.833l2.223-3.833H217.992z"/>
		</g>
	</g>
</g>
</svg>
